<svg width="32" height="32" viewBox="0 0 32 32" fill="none" xmlns="http://www.w3.org/2000/svg">
<path d="M0.117688 24.1482L0 0.0577589L23.5769 5.24783e-05C23.5769 5.24783e-05 27.2087 -0.0576542 27.6774 3.65411L27.5308 13.9156C27.5308 13.9156 31.6602 13.7095 31.7201 17.6253L31.5137 28.0269C31.5107 28.3257 31.4571 28.6218 31.3547 28.9028C30.988 29.8257 30.285 30.576 29.387 31.0028C28.78 31.3063 28.1105 31.4637 27.4317 31.4627L5.41779 31.7201C5.41779 31.7201 4.79838 26.4873 9.37171 25.902H25.7158L25.8027 24.0267C25.8344 23.4798 25.7463 22.9324 25.5447 22.4231C25.0986 21.3269 23.8122 19.7543 21.5865 19.8139L15.6402 19.7563C15.6402 19.7563 12.4192 19.4059 12.0083 16.2527C12.0083 16.2527 11.5107 12.8604 14.9671 12.0422L18.51 11.8959C18.51 11.8959 21.5598 11.1086 21.9087 7.89143L21.8488 5.72947L11.1288 5.78719C11.1288 5.78719 6.91058 5.84491 5.7977 10.3481L5.68002 20.6982C5.68002 20.6982 4.89129 24.7313 0.117688 24.1482Z" fill="#186AB4"/>
</svg>
