<svg width="24" height="24" viewBox="0 0 24 24" fill="none" xmlns="http://www.w3.org/2000/svg">
<path d="M9.42775 5.16581V0.856917C9.4276 0.383508 9.04374 -0.000150627 8.57033 4.43636e-08C8.32755 5.02681e-05 8.09622 0.103109 7.93369 0.283463L0.219383 8.85499C-0.0627231 9.16919 -0.0740234 9.642 0.192815 9.9693L7.90717 19.3979C8.20691 19.7643 8.74691 19.8184 9.11335 19.5186C9.31183 19.3563 9.42719 19.1135 9.42775 18.8571V14.5859C16.1993 14.8062 20.425 17.7008 22.3296 23.4146C22.4464 23.7641 22.7736 23.9998 23.1422 24C23.1884 24.0001 23.2346 23.9964 23.2802 23.9888C23.6948 23.9212 23.9993 23.563 23.9993 23.1428C23.9993 13.049 17.923 5.63379 9.42775 5.16581Z" fill="#186AB4"/>
</svg>
