<svg width="25" height="25" viewBox="0 0 25 25" fill="none" xmlns="http://www.w3.org/2000/svg">
<path d="M21.875 0H3.125C1.40209 0 0 1.40209 0 3.125V21.875C0 23.5979 1.40209 25 3.125 25H21.875C23.5979 25 25 23.5979 25 21.875V3.125C25 1.40209 23.5979 0 21.875 0ZM22.9166 21.875C22.9166 22.4501 22.4501 22.9166 21.875 22.9166H9.375V17.1875C9.375 16.325 8.675 15.625 7.8125 15.625H2.0834V3.125C2.0834 2.54993 2.54993 2.0834 3.125 2.0834H21.875C22.4501 2.0834 22.9166 2.54993 22.9166 3.125V21.875Z" fill="#186AB4"/>
<path d="M19.7915 4.16663H13.5415C13.1208 4.16663 12.7395 4.42088 12.5791 4.8094C12.4177 5.19907 12.5072 5.64692 12.8051 5.94485L15.1937 8.33342L10.7219 12.8052C10.3145 13.2126 10.3145 13.8708 10.7219 14.2781C10.9248 14.4812 11.1917 14.5834 11.4583 14.5834C11.725 14.5834 11.9916 14.4812 12.1947 14.2781L16.6665 9.80627L19.0551 12.1948C19.254 12.3938 19.5207 12.5 19.7915 12.5C19.926 12.5 20.0614 12.4739 20.1905 12.4209C20.5802 12.2593 20.8333 11.8792 20.8333 11.4584V5.20842C20.8333 4.63335 20.3675 4.16663 19.7915 4.16663Z" fill="#186AB4"/>
</svg>
