<svg width="20" height="20" viewBox="0 0 20 20" fill="none" xmlns="http://www.w3.org/2000/svg">
<path d="M0.996658 1.99313C1.54706 1.99313 1.99325 1.54694 1.99325 0.996536C1.99325 0.446131 1.54706 -6.10352e-05 0.996658 -6.10352e-05C0.446253 -6.10352e-05 6.10352e-05 0.446131 6.10352e-05 0.996536C6.10352e-05 1.54694 0.446253 1.99313 0.996658 1.99313Z" fill="white"/>
<path d="M3.95631 5.01309C4.50672 5.01309 4.95291 4.5669 4.95291 4.01649C4.95291 3.46609 4.50672 3.0199 3.95631 3.0199C3.40591 3.0199 2.95972 3.46609 2.95972 4.01649C2.95972 4.5669 3.40591 5.01309 3.95631 5.01309Z" fill="white"/>
<path d="M3.95631 1.99313C4.50672 1.99313 4.95291 1.54694 4.95291 0.996536C4.95291 0.446131 4.50672 -6.10352e-05 3.95631 -6.10352e-05C3.40591 -6.10352e-05 2.95972 0.446131 2.95972 0.996536C2.95972 1.54694 3.40591 1.99313 3.95631 1.99313Z" fill="white"/>
<path d="M6.97639 5.01309C7.5268 5.01309 7.97299 4.5669 7.97299 4.01649C7.97299 3.46609 7.5268 3.0199 6.97639 3.0199C6.42599 3.0199 5.9798 3.46609 5.9798 4.01649C5.9798 4.5669 6.42599 5.01309 6.97639 5.01309Z" fill="white"/>
<path d="M6.97639 7.97272C7.5268 7.97272 7.97299 7.52652 7.97299 6.97612C7.97299 6.42571 7.5268 5.97952 6.97639 5.97952C6.42599 5.97952 5.9798 6.42571 5.9798 6.97612C5.9798 7.52652 6.42599 7.97272 6.97639 7.97272Z" fill="white"/>
<path d="M6.97639 1.99313C7.5268 1.99313 7.97299 1.54694 7.97299 0.996536C7.97299 0.446131 7.5268 -6.10352e-05 6.97639 -6.10352e-05C6.42599 -6.10352e-05 5.9798 0.446131 5.9798 0.996536C5.9798 1.54694 6.42599 1.99313 6.97639 1.99313Z" fill="white"/>
<path d="M9.93605 5.01309C10.4865 5.01309 10.9326 4.5669 10.9326 4.01649C10.9326 3.46609 10.4865 3.0199 9.93605 3.0199C9.38564 3.0199 8.93945 3.46609 8.93945 4.01649C8.93945 4.5669 9.38564 5.01309 9.93605 5.01309Z" fill="white"/>
<path d="M9.93605 7.97272C10.4865 7.97272 10.9326 7.52652 10.9326 6.97612C10.9326 6.42571 10.4865 5.97952 9.93605 5.97952C9.38564 5.97952 8.93945 6.42571 8.93945 6.97612C8.93945 7.52652 9.38564 7.97272 9.93605 7.97272Z" fill="white"/>
<path d="M9.93605 1.99313C10.4865 1.99313 10.9326 1.54694 10.9326 0.996536C10.9326 0.446131 10.4865 -6.10352e-05 9.93605 -6.10352e-05C9.38564 -6.10352e-05 8.93945 0.446131 8.93945 0.996536C8.93945 1.54694 9.38564 1.99313 9.93605 1.99313Z" fill="white"/>
<path d="M12.8957 5.01309C13.4461 5.01309 13.8923 4.5669 13.8923 4.01649C13.8923 3.46609 13.4461 3.0199 12.8957 3.0199C12.3453 3.0199 11.8991 3.46609 11.8991 4.01649C11.8991 4.5669 12.3453 5.01309 12.8957 5.01309Z" fill="white"/>
<path d="M12.8957 7.97272C13.4461 7.97272 13.8923 7.52652 13.8923 6.97612C13.8923 6.42571 13.4461 5.97952 12.8957 5.97952C12.3453 5.97952 11.8991 6.42571 11.8991 6.97612C11.8991 7.52652 12.3453 7.97272 12.8957 7.97272Z" fill="white"/>
<path d="M9.93605 10.9324C10.4865 10.9324 10.9326 10.4862 10.9326 9.93581C10.9326 9.3854 10.4865 8.93921 9.93605 8.93921C9.38564 8.93921 8.93945 9.3854 8.93945 9.93581C8.93945 10.4862 9.38564 10.9324 9.93605 10.9324Z" fill="white"/>
<path d="M12.8957 10.9324C13.4461 10.9324 13.8923 10.4862 13.8923 9.93581C13.8923 9.3854 13.4461 8.93921 12.8957 8.93921C12.3453 8.93921 11.8991 9.3854 11.8991 9.93581C11.8991 10.4862 12.3453 10.9324 12.8957 10.9324Z" fill="white"/>
<path d="M6.97634 13.9523C7.52678 13.9523 7.973 13.5061 7.973 12.9557C7.973 12.4052 7.52678 11.959 6.97634 11.959C6.4259 11.959 5.97968 12.4052 5.97968 12.9557C5.97968 13.5061 6.4259 13.9523 6.97634 13.9523Z" fill="white"/>
<path d="M9.936 13.9523C10.4864 13.9523 10.9327 13.5061 10.9327 12.9557C10.9327 12.4052 10.4864 11.959 9.936 11.959C9.38555 11.959 8.93933 12.4052 8.93933 12.9557C8.93933 13.5061 9.38555 13.9523 9.936 13.9523Z" fill="white"/>
<path d="M12.8956 13.9523C13.446 13.9523 13.8923 13.5061 13.8923 12.9557C13.8923 12.4052 13.446 11.959 12.8956 11.959C12.3451 11.959 11.8989 12.4052 11.8989 12.9557C11.8989 13.5061 12.3451 13.9523 12.8956 13.9523Z" fill="white"/>
<path d="M3.95631 16.9156C4.50672 16.9156 4.95291 16.4695 4.95291 15.9191C4.95291 15.3686 4.50672 14.9225 3.95631 14.9225C3.40591 14.9225 2.95972 15.3686 2.95972 15.9191C2.95972 16.4695 3.40591 16.9156 3.95631 16.9156Z" fill="white"/>
<path d="M6.97639 16.9156C7.5268 16.9156 7.97299 16.4695 7.97299 15.9191C7.97299 15.3686 7.5268 14.9225 6.97639 14.9225C6.42599 14.9225 5.9798 15.3686 5.9798 15.9191C5.9798 16.4695 6.42599 16.9156 6.97639 16.9156Z" fill="white"/>
<path d="M9.93605 16.9156C10.4865 16.9156 10.9326 16.4695 10.9326 15.9191C10.9326 15.3686 10.4865 14.9225 9.93605 14.9225C9.38564 14.9225 8.93945 15.3686 8.93945 15.9191C8.93945 16.4695 9.38564 16.9156 9.93605 16.9156Z" fill="white"/>
<path d="M12.8957 16.9156C13.4461 16.9156 13.8923 16.4695 13.8923 15.9191C13.8923 15.3686 13.4461 14.9225 12.8957 14.9225C12.3453 14.9225 11.8991 15.3686 11.8991 15.9191C11.8991 16.4695 12.3453 16.9156 12.8957 16.9156Z" fill="white"/>
<path d="M15.9798 7.97272C16.5302 7.97272 16.9764 7.52652 16.9764 6.97612C16.9764 6.42571 16.5302 5.97952 15.9798 5.97952C15.4294 5.97952 14.9832 6.42571 14.9832 6.97612C14.9832 7.52652 15.4294 7.97272 15.9798 7.97272Z" fill="white"/>
<path d="M15.9798 10.9324C16.5302 10.9324 16.9764 10.4862 16.9764 9.93581C16.9764 9.3854 16.5302 8.93921 15.9798 8.93921C15.4294 8.93921 14.9832 9.3854 14.9832 9.93581C14.9832 10.4862 15.4294 10.9324 15.9798 10.9324Z" fill="white"/>
<path d="M15.9798 13.9523C16.5303 13.9523 16.9765 13.5061 16.9765 12.9557C16.9765 12.4052 16.5303 11.959 15.9798 11.959C15.4294 11.959 14.9832 12.4052 14.9832 12.9557C14.9832 13.5061 15.4294 13.9523 15.9798 13.9523Z" fill="white"/>
<path d="M0.996664 20C1.54711 20 1.99333 19.5537 1.99333 19.0033C1.99333 18.4528 1.54711 18.0066 0.996664 18.0066C0.446222 18.0066 0 18.4528 0 19.0033C0 19.5537 0.446222 20 0.996664 20Z" fill="white"/>
<path d="M3.95632 20C4.50676 20 4.95298 19.5537 4.95298 19.0033C4.95298 18.4528 4.50676 18.0066 3.95632 18.0066C3.40588 18.0066 2.95966 18.4528 2.95966 19.0033C2.95966 19.5537 3.40588 20 3.95632 20Z" fill="white"/>
<path d="M6.97634 20C7.52678 20 7.973 19.5537 7.973 19.0033C7.973 18.4528 7.52678 18.0066 6.97634 18.0066C6.4259 18.0066 5.97968 18.4528 5.97968 19.0033C5.97968 19.5537 6.4259 20 6.97634 20Z" fill="white"/>
<path d="M9.936 20C10.4864 20 10.9327 19.5537 10.9327 19.0033C10.9327 18.4528 10.4864 18.0066 9.936 18.0066C9.38555 18.0066 8.93933 18.4528 8.93933 19.0033C8.93933 19.5537 9.38555 20 9.936 20Z" fill="white"/>
<path d="M18.9432 10.9324C19.4936 10.9324 19.9398 10.4862 19.9398 9.93581C19.9398 9.3854 19.4936 8.93921 18.9432 8.93921C18.3928 8.93921 17.9466 9.3854 17.9466 9.93581C17.9466 10.4862 18.3928 10.9324 18.9432 10.9324Z" fill="white"/>
</svg>
