<svg width="123" height="17" viewBox="0 0 123 17" fill="none" xmlns="http://www.w3.org/2000/svg">
<path d="M112.766 6.08102C112.749 7.13145 112.758 8.51524 112.766 9.56724C112.77 9.65511 112.778 9.7428 112.791 9.82981C113.195 9.45087 113.608 9.09391 113.986 8.7008C115.488 7.13931 116.974 5.55581 118.479 4.00849C118.651 3.84826 118.873 3.75126 119.108 3.7333C120.247 3.70657 121.387 3.72072 122.528 3.72072C122.652 3.72072 122.776 3.73173 123 3.74274C122.822 3.95187 122.701 4.10599 122.568 4.24908C119.375 7.63308 116.188 11.0139 113.006 14.3916C112.534 14.8901 111.61 15.9924 111.152 16.4988C110.964 16.7079 110.764 16.7504 110.458 16.7598H109.577C109.207 16.7598 109.125 16.6875 109.127 16.3872C109.137 14.824 109.127 13.2595 109.127 11.6964C109.127 9.92731 109.127 7.85007 109.127 6.0826L112.766 6.08102Z" fill="white"/>
<path d="M117.571 11.4196L121.114 16.7661C119.645 16.7661 118.302 16.7661 116.961 16.7567C116.897 16.7432 116.835 16.7166 116.781 16.6785C116.727 16.6403 116.681 16.5915 116.647 16.5349C116.156 15.7707 115.674 15.0018 115.208 14.2218C115.177 14.1613 115.161 14.0941 115.161 14.026C115.161 13.958 115.177 13.8909 115.208 13.8303L117.571 11.4196Z" fill="white"/>
<path d="M0.0621273 12.7478L0 0.0304908L12.4462 2.77032e-05C12.4462 2.77032e-05 14.3634 -0.0304355 14.6108 1.929L14.5334 7.34599C14.5334 7.34599 16.7133 7.2372 16.745 9.30434L16.636 14.7953C16.6344 14.9531 16.6061 15.1094 16.5521 15.2577C16.3585 15.7449 15.9874 16.141 15.5133 16.3663C15.1929 16.5265 14.8395 16.6096 14.4811 16.609L2.86004 16.745C2.86004 16.745 2.53305 13.9826 4.9473 13.6736H13.5753L13.6212 12.6836C13.6379 12.3949 13.5914 12.106 13.485 11.8371C13.2495 11.2584 12.5704 10.4283 11.3954 10.4597L8.25639 10.4293C8.25639 10.4293 6.55607 10.2443 6.33917 8.57975C6.33917 8.57975 6.07649 6.78895 7.90108 6.35704L9.7714 6.27979C9.7714 6.27979 11.3813 5.86418 11.5656 4.16586L11.5339 3.02457L5.87485 3.05504C5.87485 3.05504 3.64808 3.08551 3.06059 5.46272L2.99847 10.9265C2.99847 10.9265 2.5821 13.0556 0.0621273 12.7478Z" fill="white"/>
<path d="M19.3665 16.7741H27.479V14.38H22.3858V6.09969H19.3665V16.7741ZM33.893 16.9876C37.3089 16.9876 39.825 14.6392 39.825 11.4369C39.825 8.23458 37.3089 5.8862 33.893 5.8862C30.4772 5.8862 27.9611 8.23458 27.9611 11.4369C27.9611 14.6392 30.4772 16.9876 33.893 16.9876ZM33.893 14.4868C32.2766 14.4868 31.0109 13.2821 31.0109 11.4369C31.0109 9.59176 32.2766 8.38707 33.893 8.38707C35.5095 8.38707 36.7751 9.59176 36.7751 11.4369C36.7751 13.2821 35.5095 14.4868 33.893 14.4868ZM46.7283 16.9876C48.6954 16.9876 50.2814 16.2709 51.3183 14.9747L49.3969 13.2363C48.7259 14.0445 47.9025 14.4868 46.8808 14.4868C45.1271 14.4868 43.9072 13.2668 43.9072 11.4369C43.9072 9.60701 45.1271 8.38707 46.8808 8.38707C47.9025 8.38707 48.7259 8.8293 49.3969 9.6375L51.3183 7.89909C50.2814 6.60291 48.6954 5.8862 46.7283 5.8862C43.343 5.8862 40.8573 8.18883 40.8573 11.4369C40.8573 14.685 43.343 16.9876 46.7283 16.9876ZM59.8316 16.7741H63.339L58.7489 10.8269L63.1102 6.09969H59.7859L55.6534 10.5372V6.09969H52.6645V16.7741H55.6534V14.1055L56.7818 12.9008L59.8316 16.7741ZM69.066 16.9876C71.0331 16.9876 72.619 16.2709 73.656 14.9747L71.7346 13.2363C71.0636 14.0445 70.2402 14.4868 69.2185 14.4868C67.4648 14.4868 66.2449 13.2668 66.2449 11.4369C66.2449 9.60701 67.4648 8.38707 69.2185 8.38707C70.2402 8.38707 71.0636 8.8293 71.7346 9.6375L73.656 7.89909C72.619 6.60291 71.0331 5.8862 69.066 5.8862C65.6807 5.8862 63.195 8.18883 63.195 11.4369C63.195 14.685 65.6807 16.9876 69.066 16.9876ZM82.1388 6.09969V10.1102H78.0216V6.09969H75.0022V16.7741H78.0216V12.6111H82.1388V16.7741H85.1582V6.09969H82.1388ZM90.2768 14.441V12.4891H95.0193V10.2322H90.2768V8.43282H95.6601V6.09969H87.2879V16.7741H95.8584V14.441H90.2768ZM102.841 16.9876C104.808 16.9876 106.394 16.2709 107.431 14.9747L105.509 13.2363C104.838 14.0445 104.015 14.4868 102.993 14.4868C101.239 14.4868 100.019 13.2668 100.019 11.4369C100.019 9.60701 101.239 8.38707 102.993 8.38707C104.015 8.38707 104.838 8.8293 105.509 9.6375L107.431 7.89909C106.394 6.60291 104.808 5.8862 102.841 5.8862C99.4553 5.8862 96.9696 8.18883 96.9696 11.4369C96.9696 14.685 99.4553 16.9876 102.841 16.9876Z" fill="white"/>
</svg>
