<svg width="233" height="33" viewBox="0 0 233 33" fill="none" xmlns="http://www.w3.org/2000/svg">
<path d="M213.613 11.5194C213.581 13.5092 213.599 16.1305 213.613 18.1233C213.621 18.2898 213.637 18.4559 213.66 18.6207C214.426 17.9029 215.209 17.2267 215.924 16.482C218.77 13.5241 221.584 10.5245 224.435 7.59334C224.762 7.28983 225.183 7.10607 225.627 7.07206C227.786 7.02142 229.945 7.04823 232.106 7.04823C232.341 7.04823 232.576 7.06908 233 7.08993C232.662 7.4861 232.433 7.77803 232.182 8.0491C226.134 14.4594 220.097 20.8638 214.068 27.2622C213.175 28.2064 211.423 30.2946 210.557 31.2538C210.199 31.6499 209.822 31.7304 209.242 31.7483H207.572C206.872 31.7483 206.717 31.6112 206.72 31.0424C206.738 28.0813 206.72 25.1175 206.72 22.1566C206.72 18.8054 206.72 14.8705 206.72 11.5223L213.613 11.5194Z" fill="#186AB4"/>
<path d="M222.716 21.6323L229.427 31.7602C226.645 31.7602 224.101 31.7602 221.561 31.7423C221.438 31.7168 221.321 31.6665 221.22 31.5943C221.117 31.5219 221.03 31.4294 220.965 31.3222C220.035 29.8746 219.122 28.418 218.239 26.9404C218.181 26.8258 218.15 26.6985 218.15 26.5696C218.15 26.4407 218.181 26.3136 218.239 26.1988L222.716 21.6323Z" fill="#186AB4"/>
<path d="M0.117688 24.1482L0 0.0577589L23.5769 5.24783e-05C23.5769 5.24783e-05 27.2087 -0.0576542 27.6774 3.65411L27.5308 13.9156C27.5308 13.9156 31.6602 13.7095 31.7201 17.6253L31.5137 28.0269C31.5107 28.3257 31.4571 28.6218 31.3547 28.9028C30.988 29.8257 30.285 30.576 29.387 31.0028C28.78 31.3063 28.1105 31.4637 27.4317 31.4627L5.41779 31.7201C5.41779 31.7201 4.79838 26.4873 9.37171 25.902H25.7158L25.8027 24.0267C25.8344 23.4798 25.7463 22.9324 25.5447 22.4231C25.0986 21.3269 23.8122 19.7543 21.5865 19.8139L15.6402 19.7563C15.6402 19.7563 12.4192 19.4059 12.0083 16.2527C12.0083 16.2527 11.5107 12.8604 14.9671 12.0422L18.51 11.8959C18.51 11.8959 21.5598 11.1086 21.9087 7.89143L21.8488 5.72947L11.1288 5.78719C11.1288 5.78719 6.91058 5.84491 5.7977 10.3481L5.68002 20.6982C5.68002 20.6982 4.89129 24.7313 0.117688 24.1482Z" fill="#186AB4"/>
<path d="M36.6861 31.7754H52.0538V27.2402H42.4057V11.5547H36.6861V31.7754ZM64.2039 32.1798C70.6745 32.1798 75.4408 27.7312 75.4408 21.665C75.4408 15.5988 70.6745 11.1503 64.2039 11.1503C57.7333 11.1503 52.967 15.5988 52.967 21.665C52.967 27.7312 57.7333 32.1798 64.2039 32.1798ZM64.2039 27.4424C61.1419 27.4424 58.7443 25.1603 58.7443 21.665C58.7443 18.1697 61.1419 15.8877 64.2039 15.8877C67.2659 15.8877 69.6635 18.1697 69.6635 21.665C69.6635 25.1603 67.2659 27.4424 64.2039 27.4424ZM88.5178 32.1798C92.2442 32.1798 95.2484 30.8221 97.2127 28.3667L93.573 25.0737C92.302 26.6046 90.7421 27.4424 88.8067 27.4424C85.4847 27.4424 83.1738 25.1314 83.1738 21.665C83.1738 18.1986 85.4847 15.8877 88.8067 15.8877C90.7421 15.8877 92.302 16.7254 93.573 18.2564L97.2127 14.9633C95.2484 12.5079 92.2442 11.1503 88.5178 11.1503C82.105 11.1503 77.3965 15.5122 77.3965 21.665C77.3965 27.8179 82.105 32.1798 88.5178 32.1798ZM113.34 31.7754H119.984L111.289 20.5096L119.55 11.5547H113.253L105.425 19.9607V11.5547H99.7629V31.7754H105.425V26.7202L107.562 24.4381L113.34 31.7754ZM130.832 32.1798C134.559 32.1798 137.563 30.8221 139.527 28.3667L135.887 25.0737C134.616 26.6046 133.057 27.4424 131.121 27.4424C127.799 27.4424 125.488 25.1314 125.488 21.665C125.488 18.1986 127.799 15.8877 131.121 15.8877C133.057 15.8877 134.616 16.7254 135.887 18.2564L139.527 14.9633C137.563 12.5079 134.559 11.1503 130.832 11.1503C124.419 11.1503 119.711 15.5122 119.711 21.665C119.711 27.8179 124.419 32.1798 130.832 32.1798ZM155.596 11.5547V19.1519H147.797V11.5547H142.077V31.7754H147.797V23.8893H155.596V31.7754H161.316V11.5547H155.596ZM171.012 27.3557V23.6582H179.996V19.383H171.012V15.9743H181.21V11.5547H165.35V31.7754H181.585V27.3557H171.012ZM194.812 32.1798C198.538 32.1798 201.542 30.8221 203.507 28.3667L199.867 25.0737C198.596 26.6046 197.036 27.4424 195.101 27.4424C191.779 27.4424 189.468 25.1314 189.468 21.665C189.468 18.1986 191.779 15.8877 195.101 15.8877C197.036 15.8877 198.596 16.7254 199.867 18.2564L203.507 14.9633C201.542 12.5079 198.538 11.1503 194.812 11.1503C188.399 11.1503 183.69 15.5122 183.69 21.665C183.69 27.8179 188.399 32.1798 194.812 32.1798Z" fill="#186AB4"/>
</svg>
