<svg width="18" height="20" viewBox="0 0 18 20" fill="none" xmlns="http://www.w3.org/2000/svg">
<path d="M14.2578 9.77752V3.90619C14.2578 2.61385 13.2064 1.56244 11.9141 1.56244H9.35832C9.03586 0.653025 8.16699 -6.10352e-05 7.14844 -6.10352e-05C6.12988 -6.10352e-05 5.26102 0.653025 4.93855 1.56244H2.34375C1.05141 1.56244 0 2.61385 0 3.90619V16.0937C0 17.386 1.05141 18.4374 2.34375 18.4374H7.39996C7.72242 19.3467 8.59094 19.9999 9.60984 19.9999L14.8047 19.997C16.0971 19.997 17.1485 18.9458 17.1485 17.6536V12.6846L14.2578 9.77752ZM14.4866 12.2236H13.4766C13.0458 12.2236 12.6953 11.8731 12.6953 11.4423V10.4221L14.4866 12.2236ZM4.80469 3.12494H6.36719V2.34369C6.36719 1.91291 6.71766 1.56244 7.14844 1.56244C7.57922 1.56244 7.92969 1.91291 7.92969 2.34369V3.12494H9.49219V4.64838H4.80469V3.12494ZM7.26562 10.1169V16.8749H2.34375C1.91297 16.8749 1.5625 16.5245 1.5625 16.0937V3.90619C1.5625 3.47541 1.91297 3.12494 2.34375 3.12494H3.24219V6.21088H11.0547V3.12494H11.9141C12.3448 3.12494 12.6953 3.47541 12.6953 3.90619V8.20615L12.265 7.77338H9.60938C8.31703 7.77338 7.26562 8.82467 7.26562 10.1169ZM15.5859 17.6536C15.5859 18.0842 15.2355 18.4345 14.8043 18.4345L9.60938 18.4374C9.17859 18.4374 8.82812 18.0871 8.82812 17.6565V10.1169C8.82812 9.68623 9.17859 9.33588 9.60938 9.33588H11.1328V11.4424C11.1328 12.7347 12.1842 13.7861 13.4766 13.7861H15.5859V17.6536Z" fill="#186AB4"/>
</svg>
